<?xml version="1.0" standalone="no"?>
<!DOCTYPE svg PUBLIC "-//W3C//DTD SVG 20010904//EN"
 "http://www.w3.org/TR/2001/REC-SVG-20010904/DTD/svg10.dtd">
<svg version="1.0" xmlns="http://www.w3.org/2000/svg"
 width="278.000000pt" height="476.000000pt" viewBox="0 0 278.000000 476.000000"
 preserveAspectRatio="xMidYMid meet">

<g transform="translate(0.000000,476.000000) scale(0.100000,-0.100000)"
fill="#000000" stroke="none">
<path d="M907 4395 c-46 -16 -80 -46 -109 -95 -12 -19 -35 -50 -52 -68 -30
-32 -31 -35 -29 -125 1 -80 6 -104 36 -180 26 -63 45 -96 72 -120 45 -39 65
-82 65 -140 0 -39 -5 -49 -47 -92 -39 -39 -86 -67 -250 -146 -117 -57 -208
-108 -218 -121 -33 -47 -58 -156 -51 -222 11 -105 90 -327 174 -491 41 -79 47
-98 48 -155 1 -82 22 -756 29 -955 7 -166 19 -251 39 -258 7 -3 37 -8 68 -12
40 -5 58 -13 68 -28 12 -18 16 -109 22 -457 4 -239 8 -444 9 -456 1 -11 -17
-59 -40 -105 -22 -47 -41 -95 -41 -107 0 -36 37 -52 120 -52 81 1 111 10 159
52 27 24 31 33 31 79 0 28 -5 69 -11 89 -10 33 -9 41 9 66 14 20 25 65 37 144
9 63 29 196 45 295 16 99 34 221 40 270 19 145 13 135 84 135 66 0 106 -22
106 -58 0 -9 7 -84 14 -167 8 -82 22 -231 31 -330 9 -99 20 -218 25 -265 5
-47 6 -103 2 -125 -5 -22 -7 -58 -4 -78 5 -48 30 -59 121 -55 58 3 67 6 78 28
14 28 21 28 106 -1 45 -15 85 -19 188 -19 72 0 139 5 150 10 27 15 24 41 -10
76 -25 25 -45 33 -126 48 -77 15 -107 26 -150 55 -61 42 -100 87 -99 116 1 11
2 229 3 485 l1 465 31 -38 c24 -29 37 -37 58 -35 l26 3 -1 105 c-1 58 -9 193
-18 300 -9 107 -20 276 -26 375 -6 99 -15 254 -21 344 -6 90 -7 167 -2 172 5
5 53 -26 108 -68 143 -109 185 -133 232 -133 66 0 156 86 233 225 61 109 129
187 185 211 17 7 59 39 94 71 l64 59 -14 37 c-15 42 -11 59 46 182 61 134 74
170 64 180 -10 10 -394 14 -474 5 -31 -3 -39 -1 -37 10 2 8 21 78 42 155 59
217 59 192 -6 201 -74 9 -385 -5 -402 -18 -15 -13 -34 -78 -62 -208 -12 -52
-26 -113 -31 -134 l-11 -39 -26 44 c-32 53 -62 92 -80 103 -8 5 -75 23 -149
42 -151 38 -237 73 -206 85 32 12 82 76 89 114 4 22 16 42 31 52 17 11 22 21
17 32 -4 9 -11 88 -15 176 -3 88 -12 180 -19 205 -12 44 -12 48 14 87 38 57
44 111 16 141 -27 28 -53 27 -115 -3 -63 -31 -91 -31 -158 0 -56 25 -127 45
-162 44 -11 0 -37 -6 -58 -14z m191 -65 c85 -35 132 -38 176 -11 39 24 96 37
96 22 0 -6 -7 -11 -15 -11 -9 0 -38 -11 -65 -25 -64 -32 -109 -31 -195 5 -54
23 -85 30 -140 31 -68 1 -69 1 -40 15 39 18 89 11 183 -26z m217 -116 c-14
-14 -14 -19 -2 -33 8 -9 17 -30 20 -47 3 -18 9 -43 12 -56 6 -22 3 -26 -25
-31 -37 -8 -33 -22 10 -30 29 -6 30 -8 30 -61 0 -62 -18 -156 -29 -156 -16 0
-42 39 -64 95 -27 71 -53 88 -44 29 4 -22 9 -51 13 -65 5 -21 2 -27 -16 -32
-19 -5 -21 -10 -15 -36 8 -37 5 -37 -45 -9 -31 18 -42 20 -51 11 -17 -17 17
-54 72 -79 35 -15 45 -16 72 -5 57 24 72 20 71 -16 -2 -38 -37 -84 -79 -104
-49 -23 -131 -16 -210 17 -74 31 -74 32 -120 139 -16 37 -37 68 -54 80 -30 20
-61 72 -61 103 0 46 63 57 100 17 36 -38 50 -32 50 20 0 33 4 45 15 45 8 0 24
9 36 21 19 19 20 28 14 89 -5 46 -3 70 4 75 13 7 110 -13 126 -27 11 -9 89 -9
125 1 19 5 21 9 11 15 -11 7 -9 13 10 27 30 23 46 25 24 3z m-375 -10 l25 -15
-25 7 c-14 3 -32 10 -40 15 -13 7 -13 8 0 8 8 0 26 -6 40 -15z m26 -150 c-9
-24 -13 -16 -20 41 l-6 50 16 -38 c9 -20 13 -44 10 -53z m1262 -407 c12 -13 3
-75 -24 -160 -8 -29 -22 -76 -30 -105 -22 -81 -41 -112 -69 -112 -13 0 -27 5
-30 10 -4 6 7 10 24 10 17 0 31 5 31 10 0 6 -8 10 -18 10 -10 0 -33 16 -52 36
-30 32 -38 36 -71 31 -21 -3 -52 -12 -70 -21 -18 -9 -34 -14 -37 -12 -5 6 59
97 97 139 18 20 34 27 60 27 20 0 42 4 49 8 17 12 52 78 45 86 -4 3 -62 6
-130 6 l-123 0 -11 -27 c-16 -44 -37 -127 -44 -180 -10 -76 9 -34 36 78 l24
100 105 -3 c129 -4 139 -20 27 -43 -33 -7 -50 -24 -130 -127 -52 -68 -90 -98
-101 -79 -7 10 50 297 61 311 4 4 138 12 314 18 35 1 60 -3 67 -11z m-1164
-99 c76 -23 86 -30 86 -66 0 -27 -10 -26 -130 12 -91 29 -110 45 -110 96 l0
40 42 -30 c23 -17 74 -40 112 -52z m156 -43 c0 -14 -2 -25 -4 -25 -2 0 -11 -3
-20 -6 -12 -5 -16 0 -16 18 0 28 7 38 27 38 7 0 13 -11 13 -25z m-335 -42 c35
-127 202 -620 224 -661 24 -45 6 -91 -31 -76 -7 2 -42 48 -77 102 -35 53 -72
109 -83 124 -10 15 -18 31 -18 35 0 5 -15 31 -33 58 -47 69 -117 205 -117 225
0 13 15 19 62 26 34 5 63 15 66 22 2 6 -3 12 -11 12 -17 0 -27 30 -27 80 0 51
11 110 21 110 5 0 16 -26 24 -57z m-75 -59 c0 -71 -4 -76 -82 -89 -21 -3 -38
-10 -38 -15 0 -12 94 -190 144 -273 22 -37 55 -91 72 -120 17 -29 56 -91 87
-139 32 -49 53 -88 48 -88 -7 0 -35 -19 -113 -80 -29 -22 -36 -40 -17 -40 13
0 95 48 229 135 135 88 139 90 147 68 4 -10 22 -45 41 -78 l33 -59 -34 -32
c-19 -18 -136 -100 -261 -184 -220 -147 -269 -191 -195 -176 42 8 250 129 340
197 19 15 46 30 60 34 25 6 26 4 38 -72 6 -43 19 -130 27 -193 7 -63 16 -121
18 -130 5 -17 40 -296 56 -450 6 -58 15 -143 20 -190 5 -47 11 -121 12 -165
l3 -80 -75 3 c-41 2 -108 7 -148 13 -41 5 -134 16 -208 24 -132 15 -353 51
-362 59 -12 13 -49 1101 -37 1114 2 2 12 -12 24 -31 37 -60 122 -172 138 -181
29 -16 39 11 15 41 -182 230 -304 451 -387 697 -40 121 -41 130 -20 223 28
124 46 153 92 153 115 -1 210 -140 216 -316 2 -49 -1 -52 -36 -38 -14 5 -10
-7 17 -49 20 -31 36 -60 36 -64 0 -9 66 -178 83 -213 7 -14 21 -26 31 -28 16
-4 18 1 11 35 -3 21 -15 62 -25 92 -22 62 -52 178 -79 306 -25 123 -59 188
-134 257 -34 31 -59 59 -57 61 18 16 256 135 262 131 4 -3 8 -34 8 -70z m205
47 c33 -19 45 -58 22 -67 -18 -6 -77 22 -94 45 -6 9 -14 24 -17 34 -4 16 0 17
27 12 18 -4 46 -15 62 -24z m275 0 c0 -20 -18 -31 -51 -31 -28 0 -23 17 9 34
36 20 42 20 42 -3z m210 -25 l95 -23 16 -79 c29 -136 32 -178 15 -218 -8 -20
-20 -36 -25 -36 -13 0 -27 54 -41 158 -15 110 -23 131 -57 138 -27 5 -128 84
-108 83 6 0 53 -10 105 -23z m-354 -7 c8 -14 -20 -10 -41 5 -18 13 -18 14 8 9
15 -3 30 -9 33 -14z m268 -35 c4 -9 4 -19 2 -21 -8 -8 -26 8 -26 23 0 19 16
18 24 -2z m-393 -39 c16 -9 34 -27 39 -40 11 -30 26 -31 65 -5 17 11 33 20 37
20 7 0 43 -149 52 -215 3 -22 13 -93 22 -158 17 -118 17 -118 -4 -137 -43 -40
-57 -28 -97 83 -20 56 -45 125 -55 152 -11 28 -35 95 -55 150 -20 55 -41 110
-46 123 -18 46 -8 52 42 27z m1013 -18 c19 -30 -13 -68 -104 -122 -151 -89
-157 -97 -53 -70 67 17 93 19 93 5 0 -12 -49 -43 -165 -104 -49 -26 -107 -61
-129 -78 l-38 -31 -24 29 c-30 37 -30 41 5 69 15 14 38 50 50 82 39 105 65
132 181 191 112 56 162 64 184 29z m-670 -22 c18 -43 56 -213 63 -282 5 -49 4
-54 -28 -82 -26 -24 -36 -28 -45 -18 -6 6 -26 75 -44 152 -18 77 -44 164 -57
194 -13 30 -21 56 -18 59 3 3 25 1 50 -5 36 -8 45 -8 45 3 0 26 20 14 34 -21z
m146 25 c0 -6 11 -72 25 -147 27 -144 26 -166 -7 -184 -26 -14 -29 -10 -44 59
-30 137 -54 240 -60 255 -6 16 11 24 59 26 15 0 27 -4 27 -9z m159 -31 c12
-34 15 -76 5 -67 -3 3 -12 27 -19 52 -16 51 -3 64 14 15z m1000 -14 c3 -3 -15
-45 -39 -93 -41 -80 -48 -87 -77 -90 -33 -3 -50 -23 -122 -144 -12 -21 -35
-47 -51 -58 -27 -19 -29 -25 -27 -80 1 -68 -10 -86 -60 -96 -28 -6 -33 -3 -38
19 -9 33 2 49 26 42 17 -6 19 -1 19 42 l0 48 -115 -3 c-131 -4 -127 -7 -93 78
36 91 89 221 116 282 l25 58 181 3 c190 3 245 2 255 -8z m-518 -89 c-6 -7 -24
-49 -40 -92 -16 -44 -43 -118 -61 -167 -18 -48 -30 -90 -27 -94 10 -9 95 -22
155 -22 28 -1 52 -4 52 -8 0 -4 -8 -16 -18 -27 -11 -12 -27 -41 -36 -66 -10
-25 -40 -83 -67 -130 -35 -61 -49 -97 -49 -123 0 -20 4 -37 9 -37 6 0 31 20
57 45 26 24 50 42 53 39 10 -10 -99 -104 -119 -104 -24 0 -40 48 -40 123 0 86
18 133 73 193 44 49 47 54 26 54 -13 0 -43 -8 -68 -17 l-44 -17 -24 30 c-27
33 -133 212 -133 225 0 4 24 21 53 38 59 34 84 55 122 104 18 25 36 36 64 41
21 3 44 13 51 21 7 9 15 13 18 10 3 -2 0 -11 -7 -19z m-161 -15 c-8 -5 -26
-12 -40 -15 l-25 -7 25 15 c14 9 32 15 40 15 13 0 13 -1 0 -8z m570 -137 c0
-13 -25 -60 -40 -74 -8 -8 -40 -67 -40 -75 0 -4 16 7 36 24 36 32 62 34 45 3
-17 -32 -66 -71 -115 -92 -64 -29 -75 -15 -33 41 18 24 48 71 67 104 18 33 40
68 48 77 16 19 32 15 32 -8z m-703 -145 c76 -128 110 -169 138 -169 29 0 32
-16 9 -49 -21 -30 -29 -139 -16 -211 6 -30 8 -57 6 -59 -2 -2 -38 23 -80 55
-42 32 -89 68 -103 78 -61 45 -112 102 -120 136 -5 19 -12 78 -15 130 l-7 95
58 38 c32 20 63 37 70 37 6 0 33 -36 60 -81z m-278 22 c36 -46 38 -57 11 -71
-26 -14 -36 -7 -59 39 -14 26 -16 42 -10 54 14 25 24 21 58 -22z m-84 -41 c28
-45 36 -81 18 -87 -13 -5 -59 62 -69 101 -10 41 22 33 51 -14z m-40 -78 l26
-55 -46 -46 -46 -46 -23 28 c-13 16 -33 53 -46 84 -19 46 -21 57 -9 63 8 5 30
19 49 33 43 30 56 22 95 -61z m170 6 c4 -15 29 -383 50 -753 8 -137 21 -335
30 -438 17 -213 19 -311 6 -303 -13 9 -20 84 -36 396 -8 157 -18 343 -21 413
-4 70 -11 130 -16 133 -12 8 -38 -15 -49 -43 -5 -13 -15 -23 -24 -23 -21 0
-19 8 12 48 l27 35 -18 126 c-10 69 -21 181 -23 249 -6 118 -5 124 17 147 26
28 39 31 45 13z m617 -105 c33 -31 36 -53 9 -53 -22 0 -51 35 -51 62 0 25 9
23 42 -9z m-22 -78 c0 -15 -85 -95 -101 -95 -12 0 22 62 54 97 20 22 47 21 47
-2z m-711 -70 c0 -30 -15 1 -22 45 l-6 35 14 -30 c8 -16 14 -39 14 -50z m-105
-57 c3 -29 13 -102 22 -163 23 -156 23 -159 -3 -163 -25 -4 -27 2 -48 173 -18
145 -19 187 -3 203 18 18 25 7 32 -50z m166 -367 c0 -10 -46 -18 -124 -23 -40
-3 -62 16 -29 25 34 9 153 7 153 -2z m-45 -71 c0 -8 -17 -24 -37 -35 -35 -19
-39 -19 -54 -3 -22 22 -12 46 23 51 46 7 68 3 68 -13z m72 -252 c-3 -8 -6 -5
-6 6 -1 11 2 17 5 13 3 -3 4 -12 1 -19z m-21 -54 c-4 -9 -9 -15 -11 -12 -3 3
-3 13 1 22 4 9 9 15 11 12 3 -3 3 -13 -1 -22z m-81 -1167 c4 -75 11 -140 16
-143 5 -3 18 -2 29 1 18 6 20 15 20 83 0 97 16 78 19 -22 l2 -73 -43 -11 c-23
-6 -44 -9 -47 -7 -7 7 -20 233 -19 335 1 91 1 92 8 35 4 -33 11 -122 15 -198z
m-527 -82 c-6 -33 -13 -54 -16 -47 -4 14 18 115 24 109 2 -2 -1 -30 -8 -62z
m-23 -94 c-5 -16 -14 -21 -38 -20 -32 2 -32 2 -3 6 17 3 30 12 33 24 3 11 8
18 10 15 3 -2 2 -14 -2 -25z m570 -151 c-3 -5 -11 -10 -16 -10 -6 0 -7 5 -4
10 3 6 11 10 16 10 6 0 7 -4 4 -10z m236 -51 c40 -23 47 -29 25 -24 -27 6 -86
41 -86 51 0 7 5 5 61 -27z m-817 -15 c4 -11 2 -12 -14 -4 -27 14 -34 29 -11
23 11 -3 22 -11 25 -19z m574 -81 c-10 -2 -26 -2 -35 0 -10 3 -2 5 17 5 19 0
27 -2 18 -5z"/>
<path d="M1099 4009 l-24 -20 25 7 c14 3 36 13 50 20 l25 13 -26 1 c-15 0 -37
-9 -50 -21z"/>
<path d="M1290 3966 c0 -23 22 -41 34 -29 3 4 6 17 6 30 0 16 -6 23 -20 23
-14 0 -20 -7 -20 -24z"/>
<path d="M1120 3946 c0 -31 16 -42 28 -19 12 22 5 43 -14 43 -8 0 -14 -10 -14
-24z"/>
<path d="M850 3926 c0 -16 28 -42 36 -33 8 7 -14 47 -26 47 -6 0 -10 -6 -10
-14z"/>
<path d="M1242 2351 c-23 -14 -10 -46 18 -46 16 0 26 6 28 19 3 16 -12 36 -28
36 -3 0 -11 -4 -18 -9z"/>
<path d="M1211 2226 c-17 -20 -5 -52 20 -59 35 -9 50 3 47 37 -2 25 -8 32 -29
34 -14 2 -31 -4 -38 -12z"/>
<path d="M674 2101 c-12 -13 -1 -52 18 -62 12 -6 79 -14 150 -17 l128 -5 0 24
c0 13 -4 29 -8 35 -7 10 -279 34 -288 25z"/>
<path d="M1232 1998 c-31 -31 2 -67 48 -53 35 11 19 65 -20 65 -9 0 -21 -5
-28 -12z"/>
<path d="M2405 3209 c-38 -16 -62 -19 -97 -15 -44 6 -48 5 -48 -14 0 -16 7
-20 30 -20 51 0 125 20 165 45 50 31 22 33 -50 4z"/>
<path d="M2500 3196 c-128 -58 -288 -152 -277 -162 6 -6 338 163 357 182 22
22 2 17 -80 -20z"/>
<path d="M2455 3124 c-88 -56 -160 -95 -205 -110 -31 -11 -24 -12 73 -13 l107
-1 0 34 c0 43 28 78 85 105 25 12 45 23 45 26 0 16 -44 -1 -105 -41z m-55 -84
c0 -17 -6 -20 -42 -19 l-43 0 40 19 c22 10 41 19 43 19 1 1 2 -8 2 -19z"/>
<path d="M2245 3090 c-3 -5 1 -10 9 -10 8 0 18 5 21 10 3 6 -1 10 -9 10 -8 0
-18 -4 -21 -10z"/>
</g>
</svg>

